/* XPM */
static char *result[] = {
/* columns rows colors chars-per-pixel */
"64 64 16 1 ",
"  c black",
". c #422A18",
"X c #583B24",
"o c #006614",
"O c #705C4C",
"+ c #566A4D",
"@ c #843D03",
"# c #A34E09",
"$ c #C55E0A",
"% c #CD640E",
"& c #D76A12",
"* c #E96E0A",
"= c #00841A",
"- c #00911D",
"; c #009F20",
": c #829B65",
/* pixels */
"+:+:+++++++++++++++++::++++:++:::+++++++++++++++++++::::++++++++",
"+:::+++++:::+++++:+++::::++:++::::+++:++++++::++++++::::++++:::+",
"+:::++++:++::+++::++++::::::++::+:+++::++:+++:+:::++::+:++::::++",
"++::+++++++::++:::+++++++::+++::+:++++::+:++:++::+++:++++::+:+++",
"+++:++:::++::++:::+++++++++++++++++++++:::++::++++++:+++++++:+++",
"+++++++:::+:++:::++++++:::++++++++++++++::++::+::++++++:::++++++",
"+++:++++::++++::++++::+:+++XXX++XXXXX++++:+++++::+++::::++:++:++",
"+++::+++:::XXXX:++XXXXXX++XXXXXXXXXXXXXXX:++++::XXXXX::::++:++:+",
"++:::+++:XXXXXXXXXXXXXXXXXXXXXXXXXXXXXXXXX+::+XXXXXXXXX++++++::+",
"+::+:+++XXXXXOXXXXXXXXXXXXXXOXXXXXXXXXXXXXXXXXXXXXXXXXXXX+::::++",
"+:++++++XXXXXOOXXXXXXXXXXXXOXOXXXXXXXXXXXOOXXXX......XXXX++::+++",
"+++++++XXXXXX........XXXXXXXXXXX......XXXOXXXX.XXXXX..XXXX++++++",
":++++++XXX....XXXXXXX...XXXXXX..XXXXX...XXXXXXXXXXXXXX.XXX+++++:",
":++++++X..XXXXXXXXXXXXXXXXXXXXXXXXXXXXXX..XXXXXXXXXXXXXXXX+++++:",
"::+++++XXXXXXXXXOXXXXXXXXXXXXXX  XXXXXXXXXXXX......XXXXXXX++++::",
"+::+++::XXXXXXXOXXXX.........X o XXX  XXXXX...XXXX.....XXXX++::+",
"+::++:+:+XXXXXXXX...XXXXXXXXX o= XX o XX....XXXXXXXXXXXXXXX++:++",
"+::++:+++XXXXXXXXXXXXXXXX  XX o= X oo XXXXXXXXOXXXXXXXXXXXX++:++",
"+++++++:+XXX............X o X o= X oo XXXXXXOOXXXXXXXXXXXX:+++++",
"++++::+::XX.XXXXXXXXXXXXX oo  o= X =oo XXXXXXXXX.....XXXX::++++:",
":++:::++XXXXXXXXXXXXXXXXX ooo o== -==o XXXXX.....XXX...X+:::+++:",
"++:::+:+XXOXXXXX........X oo=o=== ===o XXXXXXXXXXXXXXXXX+:+:++++",
"++++++++XOXOXXX.XXXXXXX.. oo===;=====o XXXXXXXXXXXXXXXXX+:++++++",
"+++++++XXXOXXX..XXXXXXXXXX o===;;;;=o ......XXXXXXXXXXXXX+++++++",
":::::++XXXXXXXXXXXXXXXXXXX oo=;;;;==o XXXXX....XXXXXXXXXX+++::::",
"::::::+XXXX...........XXXXX o=;;;;-o XXXXOXXXX...XXOXXXXXX+++:::",
":::+++++XX.XXXXXXXXXX..XOXX o=;;;;-o XXXOXXXXXXXXXOXOXXXXX+:+++:",
"++::++++XXXXXXXXXXXXXXXXXOXX o;;;;-o XXXXXXXXXXXXXXXXXXXXX::++++",
"+++:::++XXXXXXXXXXXXXXXXXXXX o--;-- XXXXXX.....XXXXXXXXXX+++++++",
":+++++++XXXXX...XX....XXXX  @@#####@  XXX.XXXXX......XXXX::+++::",
"+:::+++++XX...X....XX.... @@@#%%%&&$#@ XXXXXXXXXXXXX...X+:+:++++",
"+:::+++++XXXXXXXXXXOXXXXX @@#%&&&&**#@ XXXXXXXXXXXXXXXXX+++++++:",
"::::++::+XXXXXXXXXXXOXXXX @@#%&&&***#@ .....XXXXXXXXXXXX+::::+::",
"+++++:+++X...XXXXXXXXXXXX @@#%&&&***#@ XXXXX.XXXXXXXXXXXX:++:+++",
"+++++:::+XXX..XXXX....... @@@#&&&&*%#@ XXXXX...XXXXXXXXXXX+::+++",
":++::::++XXXXXXX...XXXXX..  @#&&&&*%@ XXXXXOXX....XXXXXXXX+:+++:",
"+:+:::++XXXXXXX.XXXXXOXXXX @@#%&&&%%@ XXXXXOOXXXXXXXXXXXX+++++:+",
"+++:++++XXXXXXXXXXXXOXXXXX @#%%&&&&#@ ....XXOXX........X:+++++++",
"++++++++......XXXXXXXXXXXX @#%%&&&%#@ XXX.XXXX.XXXXXXX..::++++++",
":::::++XXXXXX.XX.......XXX @#%%%&&%#@ XXXXXXXXXXXXXXXXXX:++:::+:",
"+:::++:XXXXXXXX.XXXXXX..XXX @#%%&&#  XXXX......XXXXXXXXXX+::::++",
"++:++++XXXXXXXXXXXXXXXX...X @#%%&%#@ .....XXXX...XXOXXXXX::::+++",
":::+++++XXXXXXX....XXXXXXXX @#%%%%#@ XXXXXXXXXXXXXXXOXXXX++:+++:",
"::+++++XXX.....XXX..XOXXXXXX @#%%%#@ XXXXXXXX.......XXXXX+::++++",
"+++::++XXXXXXXXXXXXXXOOXXXXX @##%#@ XXXXXXX...XXXXX....X++++:+++",
"++++:::XXXXOXXXXXXXXXXXXXXOO @@###@ XXXXXXXXXXXXXXXXXXXX:+:+::++",
"++++::::XXOXXXX.....XXXXXXX....@.....XXXXXXXXOXXXXXXXXXX:+:+:+:+",
"++:+:::+XXXXXX..XXX....XX...XX...XX....XXXXXOXXXXXXXXXXX:::+++++",
"+:+++:::XXXXXXXXXXXXXXX.XXXXXXXXXXXXXXXXXOXXXXXXXXXXXXXXX+::++:+",
"++:++:::XXXXXXXXXXXXXXXXXXXXXXXXXXXXXXXXXXXXXX....XXXXXXX+:+++:+",
"+++++:+:+XXXXXXX......XXXXXXXXOXXXXXXXXX......XXX....XXXX+++++++",
"::+++:+:++XXX....XXXXX....XXXXXOXXXXX....XXXXXXXXXXX..XXX++::+::",
":::++++:+XXX.XXXXXXXXXXXX..XXXXXX.....XXXXXXXXXXXXXXXXXXX:::+++:",
"::::::+++XXXXXXOOXXXXXXXXXXXX....XXXXX.....XXXXOOXXXXXXX+:+++++:",
"+:::+++:XXXXXXOXOXXXXXXXXXX..XXXXXXXXXXXXX..XXOXOXXXXXX+:+++++++",
"+++:::++XXXXXXXXXXXXXXXXX..XXXXXXXXXXXXXXXXXXXXXXXXXXXX++++:++++",
"::+++++::XXXXXXXXXXXXXXXXXXXXXXXX++:XXXXXXXXXXXX++:XXX++++::++::",
":::::++++XX:++:+XX++:XXXXX++::XX+++::::++X++:::++++:::++++::+:::",
"++++++++++:++::++:+++++:::++++:+::+:++:++:+:+::+:++::::++:::++:+",
"+++::++++++++:+++:++:+::::++:++++:+++++++++++:++::+::++++:::++++",
"+++:++++::++:++::::::++::::+::+:++++:++++:::++++::++::++:++:+:++",
"+:+++++++::+++::::::++++:::+++:::++:+++:::+++++:::+++++++++++::+",
"+:++:+++++::+:::::++++++:+++++:::+:+:+::::::+++:+:++::+++++++::+",
"+:+::++++++++++++++++::++++:++:::+++++++++++++++++++::::++++++++"
};
