/* XPM */
static char *result[] = {
/* columns rows colors chars-per-pixel */
"64 64 9 1 ",
"  c #2F1D0C",
". c #002B14",
"X c #402810",
"o c #472D14",
"O c #004520",
"+ c #005C2B",
"@ c #006530",
"# c #566A4D",
"$ c #829B65",
/* pixels */
"#$#$#################$$####$##$$$###################$$$$########",
"#$$$#####$$$#####$###$$$$##$##$$$$###$######$$######$$$$####$$$#",
"#$$$####$##$$###$$####$$$$$$##$$#$###$$##$###$#$$$##$$#$##$$$$##",
"##$$#######$$##$$$#######$$#.#$$#.####$$#$##$##$$###$####$$#$###",
"###$##$$$##$$##$$$####.####...##.O.####$$.##$$.#####$#######$###",
"#######$$$#$##$$$####...$$.....#.O.#####.O.#$.@.$######$$$######",
"###$####$$####$$####....##.....#.OO.$##.OO+..@@.$###$$$$##$##$##",
"###$$###$$$##$$$###.....#......#.OOO...OOO+.+@@.....$$$$$##$##$#",
"##$$$###$#$##$$$$##.....#........OOO.OOOO++++@@@@@@@.########$$#",
"#$$#$###$#$$######$.........OOOOOOOOOOOO+++++@@@@@@.######$$$$##",
"#$#############$$$$........OOOOOOOOOOO+++++++@@@@@..$$#####$$###",
"#########$##$$$$$$##.......OOOOOOOOO++++++++@@@@...$$$##########",
"$#######$$###$$$$$.........OOOOOOOO+++++++++@@@@.$$$$##########$",
"$#######$$####$$#......OOOOOO+++++++++++++++@@@@.$$$$##########$",
"$$#####$$###$$$##......OOOOOO++++++++++++++@@@@@...$$##$$#####$$",
"#$$###$$$#$##..##......OOOOOO++++++++++++@@@@@@@@@.$##$$$####$$#",
"#$$##$#$##$$.....#...OOOOOOO+++++++++++@@@@@@@@@@@.$###$#####$##",
"#$$##$####$$........OOOOOO+++++++++++@@@@@@@@@@@@@....#######$##",
"#######$##$$........OOOOO++++++++++@@@@@@@@@@@@@@@@@@@.###$#####",
"####$$#$$##$$.......OOOO+++++++++@@@@@@@@@@@@@@@@@@@@.$##$$####$",
"$##$$$######$$......OOOO+++++++@@@@@@@@@@@@@@@@@@@@@.$$##$$$###$",
"##$$$#$###$$$......OOOO+++++++@@@@@@@@@@@@@@@@@@@@@@.$$$#$#$####",
"##########.......OOOOO+++++++@@@@@@@@@@@@@@@@@@@@@@@.#$$#$######",
"#########.......OOOOOO+++++++@@@@@@@@@@@@@@@@@@@@@@.############",
"$$$$$####.......OOOOOO++++++++@@@@@@@@@@@@@@@@@@@@.#$#######$$$$",
"$$$$$$###.......OOOOOO++++++++@@@@@@@@@@@@@@@@@@@@@.$$###$###$$$",
"$$$#####$$.....OOOOOOO+++++++++@@@@@@@@@@@@@@@@@@@@@.###$$#$###$",
"##$$####$......OOOOOOO+++++++++++@@@@@@@@@@@@@@@@@@@@.$###$$####",
"###$$$##......OOOOOOOOO++++++++++++@@@@@@@@@@@@@@@@@@.$$$#######",
"$######.......OOOOOOOOOO++++++++++++++@@@@@@@@@@@@@@.##$$$$###$$",
"#$$$###.......OOOOOOOOOOOOO++++++++++++@@@@@@@@@@@@@.##$#$#$####",
"#$$$###........OOOOOOOOOOOOO++++++++++++@@@@@@@@@@@@.##########$",
"$$$$##$$........OOOOOOOOOOOOOO+++++++++++@@@@@@@@@@@@.###$$$$#$$",
"#####$###..........OOOOOOO.OOOO+++++++++++@@@@@@@@...####$##$###",
"#####$$$#...........OOOOO.o.OOO++++++++++++@@@@@@@.########$$###",
"$##$$$$##............O...ooo.OOO++++++++++++@@@@@@@.$$#####$###$",
"#$#$$$####..$#$........o o oo.OO++++++++++++@@@@@@.#$$##$#####$#",
"###$#####$##$#$#$$.....o o oo.OOOO++++++++++@@@@@@.$$$#$$#######",
"#########$$######$$....o o Xo..OOOO+++++++++@@@@@..$$##$$$######",
"$$$$$####$$##$$####$...  o Xoo ..OOO+++++++++@@@@.#$###$$##$$$#$",
"#$$$##$$##$####$####$$$ oo Xo  oo...O+++++++++@@.#########$$$$##",
"##$####$$###$##$#####$$ oo  X o ......O+++++++...########$$$$###",
"$$$#####$#$$$#$$#$$#### ooo  oo ....#.....OO+.$.$##$$###$##$###$",
"$$##############$$$$#### ooo oo ..#$##......O.$$###$$$####$$####",
"###$$#########$$$$$$$### o oooo #########...O..$###$$#######$###",
"####$$$########$$#$$$$## o oooo $$#####$$$.....#####$$##$#$#$$##",
"####$$$$###$$#####$$#$$#$    oo $$$$##$$$$##..$#$#######$#$#$#$#",
"##$#$$$###$#######$$##### oX   o $#$##$#$$#$$#$$####$$$#$$$#####",
"#$###$$$##$$$###$##$$$##$$ X X   $#$#$##$###$#######$$$###$$##$#",
"##$##$$$##$$###$$######### X XX o #########$#$$$$###$$####$###$#",
"#####$#$#########$####$#$$ X  X oo ##$###$####$$$##$$$##########",
"$$###$#$######$######$#$$# XXoXooo $$$##$#$###$$#$#$#$#####$$#$$",
"$$$####$#$####$$######$$#$$ XXoo oo $###$#####$$###$#$###$$$###$",
"$$$$$$###$$###$$$$$##$$#$$# oo o  oo #####$#####$$##$$###$#####$",
"#$$$###$$$$$##$$$$$####$$# oo  Xoooo #####$#############$#######",
"###$$$####$$###$$###$##$  oo  XX o oo $###$###$###$########$####",
"$$#####$$$$$####$$#$$$  ooooooXo o  o $##$$##$$###$$$#####$$##$$",
"$$$$$#####$$##$####          oXo oo oo  #$##$$$####$$$####$$#$$$",
"##########$##$$#       $$$##  ooo             $#$##$$$$##$$$##$#",
"###$$########$###$##$#$$$$##$#    ######       #$$#$$####$$$####",
"###$####$$##$##$$$$$$##$$$$#$$# ####$####$$$####$$##$$##$##$#$##",
"#$#######$$###$$$$$$####$$$###$$$##$###$$$#####$$$###########$$#",
"#$##$#####$$#$$$$$######$#####$$$#$#$#$$$$$$###$#$##$$#######$$#",
"#$#$$################$$####$##$$$###################$$$$########"
};
